<svg width="123" height="66" viewBox="0 0 123 66" fill="none" xmlns="http://www.w3.org/2000/svg">
<path d="M100.3 16.92C98.82 16.68 97.23 17.03 95.71 17.28C94.97 17.4 94.25 17.81 93.6 18.21C93.02 18.57 92.53 19.07 92.03 19.54C91.25 20.28 90.68 20.09 90.32 19.16C89.47 16.98 88.02 15.87 85.58 16.34C85.12 16.43 84.62 16.38 84.14 16.34C81.62 16.15 79.14 16.46 76.81 17.37C75.43 17.91 74.23 17.85 72.94 17.3C72.69 17.19 72.42 17.14 72.16 17.07C70.08 16.46 67.79 16.5 66.02 14.94C65.51 14.49 64.81 14.2 64.15 14.02C62.46 13.54 60.71 13.26 59.05 12.71C57.46 12.18 56.01 11.4 54.84 10.06C53.92 8.99997 52.77 8.00997 51.52 7.39997C49.85 6.58997 48.02 6.03997 46.19 5.66997C44.95 5.41997 43.51 5.42997 42.34 5.82997C41.73 6.03997 41.49 7.34997 41.08 8.15997C41.04 8.22997 40.97 8.30997 40.99 8.36997C41.19 9.25997 41.13 10.38 41.66 10.97C42.41 11.81 43.59 12.27 44.6 12.87C45.45 13.37 46.09 15.22 45.62 16.08C45.49 16.32 45.11 16.53 44.82 16.56C40.78 16.99 36.7 17.21 32.69 17.83C28.4 18.49 24.22 19.74 20.21 21.44C18.05 22.36 16.62 24.2 15.12 26.01C13.75 27.65 13.9 29.35 14.1 31.05C14.38 33.36 14.27 33.82 12.13 34.62C10.43 35.25 9.25001 36.18 9.16001 38.27C9.06001 40.5 7.82001 42.27 6.19001 43.8C5.43001 44.51 4.49001 45.36 4.30001 46.28C3.98001 47.86 4.16001 49.55 4.21001 51.2C4.22001 51.54 4.51001 52.02 4.81001 52.17C5.87001 52.71 6.99001 53.13 8.08001 53.62C8.31001 53.72 8.50001 53.92 8.70001 54.07C8.47001 54.24 8.25001 54.53 8.01001 54.55C7.25001 54.61 6.42001 54.77 5.74001 54.52C4.53001 54.09 3.91001 54.68 3.18001 55.43C2.93001 55.69 2.34001 55.81 1.95001 55.73C1.26001 55.59 0.61001 55.26 0.0100098 55.03V65.06H3.28001C3.17001 64.15 3.07001 63.33 2.96001 62.52C2.84001 61.59 2.96001 60.83 3.97001 60.37C4.46001 60.14 5.03001 59.64 5.16001 59.16C5.51001 57.84 6.30001 57.51 7.52001 57.68C7.91001 57.74 8.37001 57.8 8.71001 57.67C9.50001 57.35 10.26 56.96 10.98 56.51C11.41 56.24 11.71 55.77 12.1 55.43C13.18 54.5 13.2 52.47 12 51.79C10.87 51.15 9.61001 50.71 8.38001 50.26C7.67001 50 7.29001 49.73 7.26001 48.86C7.21001 47.68 7.60001 46.87 8.44001 46.06C10.28 44.29 11.75 42.23 12.07 39.62C12.2 38.58 12.56 38.07 13.58 37.69C15.09 37.12 16.98 36.72 17.11 34.6C17.22 32.89 17.11 31.16 17.1 29.44C17.1 29.2 17.02 28.89 17.14 28.71C18.5 26.72 19.97 24.84 22.4 24.04C23.85 23.56 25.42 23.26 26.68 22.46C28.24 21.47 29.81 21.07 31.59 21.16C32.23 21.19 32.88 21.22 33.51 21.14C36.48 20.77 39.44 20.36 42.4 19.97C43.06 19.88 43.73 19.8 44.39 19.74C45.42 19.64 46.47 19.67 47.46 19.45C48.37 19.24 48.93 18.54 48.88 17.52C48.8 16.05 48.76 14.58 48.62 13.12C48.51 11.95 48.09 10.99 46.81 10.49C46.1 10.21 45.56 9.49997 44.94 8.97997C45.01 8.85997 45.08 8.72997 45.15 8.60997C47.21 9.32997 49.27 10.05 51.33 10.79C51.44 10.83 51.47 11.06 51.57 11.18C53.58 13.51 55.79 15.55 58.93 16.22C61.61 16.79 64.24 17.46 66.58 19.01C67.23 19.44 68.12 19.53 68.91 19.73C70.05 20.01 71.24 20.13 72.33 20.53C73.93 21.12 75.47 21.48 77.13 20.77C77.88 20.45 78.67 20.08 79.46 20.01C81.36 19.83 83.29 19.92 85.18 19.71C86.81 19.53 87.53 20.36 88.11 21.65C89.02 23.66 90.85 24.25 92.76 23.11C93.49 22.67 94.09 21.99 94.73 21.4C96.28 19.96 98.87 19.78 100.28 21.22C99.63 21.83 98.97 22.46 98.3 23.06C97.4 23.87 96.47 24.61 96.47 26.01C96.47 27.24 96.31 28.46 96.27 29.69C96.23 31.17 95.95 31.48 94.47 31.52C94.15 31.52 93.83 31.5 93.51 31.52C89.59 31.81 87.46 34.24 87.72 38.19H90.69C90.71 37.88 90.71 37.64 90.73 37.41C90.91 35.53 91.25 35.16 93.14 34.89C93.92 34.78 94.71 34.72 95.49 34.65C97.54 34.45 98.69 33.76 99.14 31.63C99.32 30.79 99.49 29.88 99.36 29.05C98.99 26.77 100.35 25.54 101.87 24.26C102.73 23.54 103.74 22.82 103.73 21.45C103.73 19.77 102.08 17.22 100.31 16.94L100.3 16.92Z" fill="white"/>
<path d="M43.05 42.73C42.91 42.35 42.37 41.9 41.99 41.88C40.48 41.78 38.95 41.84 37.5 41.84C35.45 47.2 33.43 52.46 31.36 57.89C29.12 55.02 27.02 52.33 24.94 49.66C27.07 47.14 29.22 44.59 31.55 41.84C30.37 41.84 29.48 41.97 28.64 41.81C26.7 41.44 25.52 42.36 24.63 43.9C24.61 43.93 24.62 43.98 24.6 44.01C23.48 45.5 22.35 46.99 21.23 48.48C21.14 48.45 21.06 48.43 20.97 48.4V41.9H16.98V58.1H20.84C21.51 56.12 19.92 53.69 22.41 52.21C23.62 53.95 24.81 55.7 26.05 57.42C26.29 57.76 26.75 58.15 27.11 58.16C29.99 58.22 32.87 58.19 35.81 58.19C36.05 57.29 36.28 56.44 36.49 55.62C36.62 55.59 36.7 55.56 36.78 55.56C38.1 55.56 39.43 55.56 40.75 55.55C42.4766 55.55 43.6033 56.3733 44.13 58.02C44.15 58.08 44.24 58.12 44.26 58.13H48.7C48.34 57.2 48 56.38 47.7 55.54C46.16 51.27 44.64 46.99 43.06 42.74L43.05 42.73ZM37.78 52.08C38.52 49.98 39.25 47.93 40.06 45.62C40.82 47.9 41.5 49.93 42.23 52.08H37.78Z" fill="white"/>
<path d="M116.36 41.87C115.25 44.88 114.15 47.86 112.96 51.08C111.89 48.16 110.95 45.52 109.94 42.89C109.78 42.48 109.35 41.9 109.02 41.88C107.28 41.78 105.53 41.83 103.8 41.83V58.11H107.82V47.61C109.24 50.83 110.49 54.07 111.61 57.35C111.9 58.19 112.37 58.18 113.03 58.19C113.7 58.21 114.06 58.06 114.31 57.33C115.39 54.23 116.56 51.17 117.7 48.1C117.79 48.1 117.87 48.1 117.96 48.1V58.13H122.14V41.88H116.35L116.36 41.87Z" fill="white"/>
<path d="M77.0199 42.3C76.1999 42.28 75.3899 41.97 74.5799 41.95C72.2799 41.9 69.9799 41.93 67.6599 41.93V58.29C70.7499 58.17 73.7499 58.24 76.6899 57.85C78.1999 57.65 79.7499 56.83 81.0099 55.91C83.0799 54.39 83.4699 52.05 83.5499 49.57C83.6599 46.1 80.0399 42.37 77.0299 42.29L77.0199 42.3ZM78.8799 51.65C78.0399 53.68 76.6499 54.59 74.4599 54.35C73.6799 54.26 72.8799 54.34 72.0299 54.34V45.44C73.9199 45.48 75.7699 45.27 77.4199 46.38C78.8899 47.37 79.5499 50.04 78.8799 51.65Z" fill="white"/>
<path d="M61.6599 43.14C60.3099 42.36 58.5199 42.17 56.9099 42.05C54.5899 41.88 52.2499 42.01 49.8899 42.01V57.95C52.8899 57.95 55.7699 58.12 58.6199 57.9C61.1799 57.7 63.2399 56.49 64.6799 54.14C65.6799 52.51 65.3499 50.86 65.4799 49.19C65.7099 46.23 63.8799 44.41 61.6599 43.14ZM57.1999 54.35C56.2599 54.25 55.2899 54.33 54.2099 54.33V45.36C55.7399 45.49 57.2799 45.4 58.6699 45.8C60.5599 46.35 61.4599 48.32 61.3299 50.33C61.2099 52.29 59.8899 54.62 57.1899 54.34L57.1999 54.35Z" fill="white"/>
<path d="M15.8499 13.55C16.8799 15.08 18.1799 15.11 19.7399 14.6C20.3599 14.4 21.0799 14.43 21.7499 14.44C22.5299 14.46 23.3099 14.6 24.0999 14.66C25.2999 14.76 26.5499 14.38 27.6499 15.3C27.9399 15.54 28.6399 15.33 29.1499 15.26C29.7699 15.18 30.3699 14.94 30.9899 14.92C32.8999 14.84 34.4599 13.85 35.7299 12.65C36.4699 11.95 37.2699 11.46 38.0599 10.88C38.6499 10.45 39.4899 9.56998 39.3699 9.12998C39.0499 7.96998 39.6199 7.14998 39.8899 6.19998C40.3199 4.73998 39.9099 4.14998 38.6499 4.04998C38.1099 3.43998 37.6399 2.96998 37.2699 2.44998C36.9899 2.05998 36.6799 1.58998 36.6399 1.13998C36.5599 0.119985 36.1299 0.199985 35.3699 0.469985C34.7999 0.679985 34.1399 0.649985 33.5199 0.749985C33.2999 0.789985 33.0699 0.869985 32.8799 0.979985C31.3099 1.91998 29.8799 2.94998 27.8299 3.02998C26.8299 3.06998 26.0999 2.89998 25.3199 2.51998C23.7199 1.75998 22.1299 0.949985 20.5399 0.149985C19.9599 -0.140015 19.2999 -0.0400155 19.4299 0.589985C19.8599 2.64998 18.7299 3.87998 17.4199 5.12998C17.1399 5.39998 16.8599 5.88998 16.9099 6.22998C17.1499 8.09998 16.3999 9.24998 14.6199 9.79998C14.3999 9.86998 14.1899 9.98999 13.9799 10.1C13.3999 10.39 13.3599 10.75 13.7899 11.23C14.4899 11.99 15.2699 12.7 15.8399 13.55H15.8499ZM17.4299 11.3C17.7199 11.11 18.0099 10.91 18.2999 10.72C19.5699 9.85998 19.8099 9.22998 19.4399 7.72998C19.2599 6.97998 19.9599 5.58998 20.6699 5.56998C21.9199 5.51998 22.3499 4.90998 22.2099 3.81998C22.8899 4.13998 23.5499 4.42998 24.1899 4.75998C24.4199 4.87998 24.6899 5.04998 24.7999 5.26998C25.3799 6.44998 26.3299 6.86998 27.4699 6.23998C28.3599 5.73998 29.2299 5.48998 30.2599 5.49998C30.7399 5.49998 31.2399 5.09998 31.6899 4.79998C33.7399 3.43998 34.9099 3.67998 36.2399 5.73998C36.4599 6.07998 37.0599 6.36998 37.0299 6.63998C36.9899 7.13998 36.4999 7.59998 36.3999 8.10998C36.2799 8.73998 36.3599 9.38998 35.3999 8.94998C35.3299 8.91998 35.0699 9.07998 35.0399 9.18998C34.2999 11.5 31.6799 11.69 30.3399 13.32C30.2399 13.44 29.7499 13.35 29.4999 13.23C28.7199 12.86 27.9999 12.36 27.2099 12.04C26.4999 11.76 25.8399 11.36 24.9199 11.91C24.3299 12.26 23.2699 12.21 22.5899 11.92C21.3799 11.41 20.3099 11.71 19.1599 11.95C18.6199 12.06 18.0099 11.84 17.4399 11.76C17.4399 11.6 17.4499 11.44 17.4599 11.29L17.4299 11.3Z" fill="white"/>
<path d="M100.59 43.88V41.89H96.4999C96.4999 45.23 96.4999 48.43 96.4999 51.63C96.4999 53.25 95.4899 54.49 94.0299 54.56C91.1399 54.7 90.1999 54.32 90.0499 52.21C89.8299 49.2 89.8499 46.17 89.7799 43.14C89.7699 42.72 89.7799 42.3 89.7799 41.89H85.4599C85.4599 45.06 85.3899 48.18 85.4999 51.28C85.5399 52.46 85.8099 53.71 86.3099 54.77C87.2799 56.83 88.8699 58.02 91.3199 58.26C93.9599 58.52 96.4999 58.5 98.6199 56.82C99.7499 55.92 100.68 54.7 100.63 52.99C100.55 49.95 100.61 46.91 100.61 43.87L100.59 43.88Z" fill="white"/>
</svg>
